<?xml version="1.0" encoding="iso-8859-1"?>
<!-- Generator: Adobe Illustrator 16.0.0, SVG Export Plug-In . SVG Version: 6.00 Build 0)  -->
<!DOCTYPE svg PUBLIC "-//W3C//DTD SVG 1.1//EN" "http://www.w3.org/Graphics/SVG/1.1/DTD/svg11.dtd">
<svg version="1.1" id="Layer_1" xmlns="http://www.w3.org/2000/svg" xmlns:xlink="http://www.w3.org/1999/xlink" x="0px" y="0px"
	 width="512px" height="512px" viewBox="0 0 512 512" style="enable-background:new 0 0 512 512;" xml:space="preserve">
<path d="M35.504,230.119v68.798c0,3.317,1.318,6.498,3.664,8.843c2.345,2.342,5.522,3.657,8.836,3.657c0.004,0,0.007,0,0.007,0
	l155.919-0.134l1.143,104.774l-49.362,34.331c-3.36,2.337-5.363,6.17-5.363,10.262v10.862c0,6.903,5.597,12.5,12.5,12.5h186.306
	c6.903,0,12.5-5.597,12.5-12.5V460.65c0-4.092-2.003-7.925-5.362-10.262l-49.362-34.331l1.143-104.774l155.915,0.134
	c0,0,0.007,0,0.011,0c3.313,0,6.491-1.315,8.835-3.657c2.347-2.345,3.665-5.526,3.665-8.843v-68.798
	c0-5.791-3.979-10.824-9.612-12.162l-157.385-37.372l0.786-72.306c0.006-0.432-0.012-0.863-0.052-1.293
	c-0.07-0.754-1.792-18.68-8.255-36.858c-2.375-6.682-5.014-12.342-7.822-17.141h79.012c6.903,0,12.5-5.596,12.5-12.5
	s-5.597-12.5-12.5-12.5H138.833c-6.903,0-12.5,5.596-12.5,12.5s5.597,12.5,12.5,12.5h78.966c-2.808,4.801-5.442,10.465-7.813,17.15
	c-6.446,18.179-8.151,36.106-8.221,36.86c-0.039,0.426-0.057,0.854-0.052,1.282l0.789,72.306L45.115,217.957
	C39.481,219.295,35.504,224.328,35.504,230.119z M60.504,239.998l157.493-37.397c5.685-1.35,9.675-6.456,9.611-12.298l-0.89-81.621
	c1.305-12.721,9.544-55.695,29.25-55.695c17.945,0,27.416,37.12,29.312,55.702l-0.889,81.614c-0.063,5.842,3.927,10.948,9.61,12.298
	l157.494,37.397v46.408l-155.779-0.134c-0.004,0-0.007,0-0.007,0c-6.854,0-12.429,5.513-12.503,12.364l-1.35,123.768
	c-0.046,4.14,1.963,8.034,5.361,10.398l37.687,26.211H187.094l37.687-26.211c3.399-2.364,5.408-6.258,5.362-10.398l-1.35-123.768
	c-0.074-6.851-5.648-12.364-12.499-12.364c0,0-0.009,0-0.011,0l-155.779,0.134V239.998z"/>
</svg>
